<svg xmlns="http://www.w3.org/2000/svg" viewBox="0 0 512 512" width="100%" height="100%">
  <!-- Flat Modern Geometric 2-Tone (Terracotta / Olive / Sage) -->
  <g transform="translate(0, -10)">
    <!-- Central Stem (Olive) -->
    <path d="M256 360 L256 120" stroke="#364734" stroke-width="24" stroke-linecap="round" />

    <!-- Left Leaf (Sage Green #7A8E77) -->
    <path d="M256 265 C170 265 110 200 125 105 C215 105 256 175 256 265 Z" fill="#7A8E77" />
    
    <!-- Right Leaf (Lighter Sage / Fresh Green #8EAE8B) -->
    <path d="M256 205 C345 195 400 130 385 40 C295 50 256 115 256 205 Z" fill="#8EAE8B" />

    <!-- Top Sprout Bud (Olive Accent #364734) -->
    <path d="M256 140 C242 95 256 55 256 55 C256 55 270 95 256 140 Z" fill="#4B6648" />

    <!-- Pot Body (Warm Terracotta #D47451) -->
    <!-- Left half / base -->
    <path d="M155 355 L185 470 C190 488 206 500 225 500 L287 500 C306 500 322 488 327 470 L357 355 Z" fill="#D47451" />
    
    <!-- Pot Subtle 2-Tone Flat Shade on Right Half -->
    <path d="M256 355 L256 500 L287 500 C306 500 322 488 327 470 L357 355 Z" fill="#C26340" />

    <!-- Pot Rim / Lip (Soft Warm Terracotta #E08563) -->
    <rect x="135" y="325" width="242" height="38" rx="14" fill="#E08563" />
    <!-- Pot Rim Right Half Shade -->
    <path d="M256 325 L363 325 C370.7 325 377 331.3 377 339 L377 349 C377 356.7 370.7 363 363 363 L256 363 Z" fill="#D47451" />
  </g>
</svg>